<svg width="23" height="17" viewBox="0 0 23 17" fill="none" xmlns="http://www.w3.org/2000/svg">
<path d="M22.1414 7.60807V4.20333C22.1405 3.30063 21.7903 2.43519 21.1679 1.79681C20.5454 1.15861 19.7014 0.799508 18.8211 0.798584H3.87954C2.99922 0.799534 2.15524 1.15863 1.53268 1.79681C0.910306 2.43519 0.560105 3.30063 0.559204 4.20333V7.60807H22.1414ZM17.991 4.20333C18.2111 4.20333 18.4223 4.29301 18.578 4.4526C18.7336 4.6122 18.8211 4.8288 18.8211 5.05451C18.8211 5.28023 18.7336 5.49683 18.578 5.65642C18.4223 5.81602 18.2111 5.9057 17.991 5.9057C17.7709 5.9057 17.5596 5.81602 17.404 5.65642C17.2483 5.49683 17.1609 5.28023 17.1609 5.05451C17.1609 4.8288 17.2483 4.6122 17.404 4.4526C17.5596 4.29301 17.7709 4.20333 17.991 4.20333ZM14.6706 4.20333C14.8908 4.20333 15.102 4.29301 15.2576 4.4526C15.4133 4.6122 15.5007 4.8288 15.5007 5.05451C15.5007 5.28023 15.4133 5.49683 15.2576 5.65642C15.102 5.81602 14.8908 5.9057 14.6706 5.9057C14.4505 5.9057 14.2393 5.81602 14.0836 5.65642C13.928 5.49683 13.8405 5.28023 13.8405 5.05451C13.8405 4.8288 13.928 4.6122 14.0836 4.4526C14.2393 4.29301 14.4505 4.20333 14.6706 4.20333ZM11.3503 4.20333C11.5704 4.20333 11.7816 4.29301 11.9373 4.4526C12.0929 4.6122 12.1804 4.8288 12.1804 5.05451C12.1804 5.28023 12.0929 5.49683 11.9373 5.65642C11.7816 5.81602 11.5704 5.9057 11.3503 5.9057C11.1302 5.9057 10.9189 5.81602 10.7633 5.65642C10.6077 5.49683 10.5202 5.28023 10.5202 5.05451C10.5202 4.8288 10.6077 4.6122 10.7633 4.4526C10.9189 4.29301 11.1302 4.20333 11.3503 4.20333ZM22.1414 11.0128H0.559204V9.31044H22.1414V11.0128ZM0.559204 12.7152H22.1414C22.1405 13.6179 21.7903 14.4833 21.1679 15.1217C20.5454 15.7599 19.7014 16.119 18.8211 16.1199H3.87954C2.99922 16.119 2.15524 15.7599 1.53268 15.1217C0.910306 14.4833 0.560105 13.6179 0.559204 12.7152Z" fill="#E0E0E0"/>
</svg>
