<svg width="25" height="18" viewBox="0 0 25 18" fill="none" xmlns="http://www.w3.org/2000/svg">
<path d="M11.636 12.4716C11.635 13.2865 11.8498 14.0883 12.2607 14.8026H21.1902C21.6406 14.0172 21.8548 13.1282 21.8088 12.2339C21.7628 11.3396 21.4584 10.4748 20.9296 9.73535H12.5213C11.9435 10.5411 11.6349 11.4951 11.6361 12.4716H11.636ZM18.4018 10.7568C18.5089 10.7568 18.5919 10.7893 18.6162 10.8777L19.3617 13.3999L20.1023 10.8777C20.1266 10.7893 20.2094 10.7568 20.3167 10.7568C20.4872 10.7568 20.7162 10.8639 20.7162 11.0081V11.0079C20.715 11.0238 20.7117 11.0395 20.7065 11.0544L19.771 13.9814C19.7272 14.121 19.5469 14.1862 19.3617 14.1862C19.1765 14.1862 19.0011 14.121 18.9523 13.9814L18.012 11.0546C18.0074 11.0393 18.0041 11.0238 18.0024 11.0081C18.0024 10.8591 18.2313 10.7568 18.4018 10.7568L18.4018 10.7568ZM15.5999 10.7568C15.7071 10.7568 15.79 10.7893 15.8144 10.8777L16.5598 13.3999L17.3004 10.8777C17.3248 10.7893 17.4075 10.7568 17.5148 10.7568C17.6854 10.7568 17.9143 10.8639 17.9143 11.0081V11.0079C17.913 11.0238 17.9097 11.0395 17.9047 11.0544L16.9692 13.9814C16.9253 14.121 16.7451 14.1862 16.5598 14.1862C16.3746 14.1862 16.1992 14.121 16.1505 13.9814L15.2102 11.0546C15.2055 11.0393 15.2022 11.0238 15.2005 11.0081C15.2005 10.8591 15.4294 10.7568 15.6 10.7568L15.5999 10.7568ZM12.7349 11.8225C12.7349 11.0454 13.2465 10.7568 13.8604 10.7568C14.5378 10.7568 15.0202 11.1012 15.0202 11.6409C15.0202 11.8829 14.9179 11.9388 14.7035 11.9388C14.5233 11.9388 14.3916 11.8877 14.3868 11.748C14.3771 11.6038 14.3429 11.2873 13.88 11.2873C13.5536 11.2873 13.3683 11.4594 13.3683 11.8225V13.1209C13.3683 13.4839 13.5536 13.656 13.8896 13.656C14.333 13.656 14.3721 13.3535 14.3866 13.1582C14.3962 13.0139 14.5328 12.9674 14.6985 12.9674C14.9177 12.9674 15.02 13.028 15.02 13.2653C15.02 13.8283 14.5376 14.1865 13.8554 14.1865C13.2415 14.1865 12.7347 13.8981 12.7347 13.1208L12.7349 11.8225Z" fill="#E0E0E0"/>
<path d="M20.7661 15.4229H12.6851C13.6467 16.6258 15.1408 17.3318 16.7256 17.3318C18.3104 17.3318 19.8045 16.6258 20.7661 15.4229Z" fill="#E0E0E0"/>
<path d="M16.7255 7.61084C15.3358 7.6101 14.0066 8.15355 13.0481 9.1146H20.4025C19.444 8.15379 18.115 7.61013 16.7253 7.61084H16.7255Z" fill="#E0E0E0"/>
<path d="M2.19438 14.3765H11.3442C11.1506 13.8792 11.0342 13.3575 10.9988 12.8281H4.36022C4.18078 12.8281 4.03537 12.6892 4.03537 12.5178V9.9325C4.03537 9.76112 4.18078 9.62226 4.36022 9.62226H11.8245C11.9009 9.50296 11.9819 9.38662 12.0674 9.27342C12.0799 9.25219 12.095 9.23261 12.1122 9.21488C13.2169 7.78705 14.9775 6.9588 16.8361 6.99241C18.6945 7.0262 20.4209 7.91776 21.4679 9.3846C22.515 10.8514 22.7532 12.7119 22.1068 14.3763H22.7687C23.1132 14.376 23.4435 14.245 23.6872 14.0123C23.9306 13.7798 24.0677 13.4644 24.0681 13.1354V5.76855H0.89563V13.1354C0.896017 13.4644 1.03311 13.7798 1.27656 14.0123C1.5202 14.245 1.85047 14.376 2.19505 14.3763L2.19438 14.3765Z" fill="#E0E0E0"/>
<path d="M0.895142 3.37402H24.0676V5.14829H0.895142V3.37402Z" fill="#E0E0E0"/>
<path d="M24.0674 1.8689C24.067 1.54001 23.9299 1.22459 23.6864 0.991906C23.4428 0.759225 23.1125 0.628298 22.768 0.62793H2.19432C1.84974 0.628299 1.51947 0.759225 1.27582 0.991906C1.03238 1.22459 0.895284 1.54001 0.894897 1.8689V2.75345H24.0673L24.0674 1.8689Z" fill="#E0E0E0"/>
<path d="M10.9932 12.2075C11.0266 11.529 11.1926 10.8626 11.4828 10.2427H4.6853V12.2075H10.9932Z" fill="#E0E0E0"/>
</svg>
