<svg width="16" height="18" viewBox="0 0 16 18" fill="none" xmlns="http://www.w3.org/2000/svg">
<path d="M13.2245 1.52781H12.1181V0.875595C12.1181 0.642516 11.9995 0.427206 11.8071 0.310739C11.6147 0.194272 11.3776 0.194272 11.1851 0.310739C10.9927 0.427206 10.8742 0.642523 10.8742 0.875595V1.52781H8.38638V0.875595C8.38638 0.642516 8.26782 0.427206 8.0754 0.310739C7.88298 0.194272 7.64586 0.194272 7.45345 0.310739C7.26104 0.427206 7.14248 0.642523 7.14248 0.875595V1.52781H4.65468V0.875595C4.65468 0.642516 4.53612 0.427206 4.3437 0.310739C4.15128 0.194272 3.91416 0.194272 3.72175 0.310739C3.52934 0.427206 3.41077 0.642523 3.41077 0.875595V1.52781H2.30431C1.77316 1.52854 1.26405 1.75012 0.888537 2.14391C0.513022 2.53771 0.301701 3.07159 0.301025 3.62858V15.0804C0.30172 15.6374 0.513015 16.1713 0.888537 16.565C1.26406 16.9588 1.77316 17.1804 2.30431 17.1811H13.2247C13.7558 17.1804 14.2649 16.9588 14.6405 16.565C15.016 16.1712 15.2273 15.6374 15.228 15.0804V3.62858C15.2273 3.07159 15.016 2.5377 14.6405 2.14391C14.2649 1.75012 13.7558 1.52852 13.2247 1.52781H13.2245ZM4.96576 13.9199C4.96576 14.0064 4.93299 14.0894 4.87469 14.1505C4.81638 14.2117 4.73725 14.246 4.65478 14.246H3.41088C3.23915 14.246 3.09991 14.1 3.09991 13.9199V12.6155C3.09991 12.4354 3.23915 12.2894 3.41088 12.2894H4.65478C4.73725 12.2894 4.81638 12.3237 4.87469 12.3849C4.93299 12.446 4.96576 12.529 4.96576 12.6155V13.9199ZM4.96576 10.6588C4.96576 10.7453 4.93299 10.8283 4.87469 10.8894C4.81638 10.9506 4.73725 10.9849 4.65478 10.9849H3.41088C3.23915 10.9849 3.09991 10.8389 3.09991 10.6588V9.3544C3.09991 9.17432 3.23915 9.0283 3.41088 9.0283H4.65478C4.73725 9.0283 4.81638 9.06265 4.87469 9.1238C4.93299 9.18494 4.96576 9.26793 4.96576 9.3544V10.6588ZM4.96576 7.39776C4.96576 7.48423 4.93299 7.56722 4.87469 7.62836C4.81638 7.6895 4.73725 7.72386 4.65478 7.72386H3.41088C3.23915 7.72386 3.09991 7.57784 3.09991 7.39776V6.09332C3.09991 5.91324 3.23915 5.76722 3.41088 5.76722H4.65478C4.73725 5.76722 4.81638 5.80157 4.87469 5.86272C4.93299 5.92386 4.96576 6.00685 4.96576 6.09332V7.39776ZM8.69746 13.9199C8.69746 14.0064 8.66469 14.0894 8.60639 14.1505C8.54808 14.2117 8.46894 14.246 8.38648 14.246H7.14258C6.97085 14.246 6.83161 14.1 6.83161 13.9199V12.6155C6.83161 12.4354 6.97085 12.2894 7.14258 12.2894H8.38648C8.46894 12.2894 8.54808 12.3237 8.60639 12.3849C8.66469 12.446 8.69746 12.529 8.69746 12.6155V13.9199ZM8.69746 10.6588C8.69746 10.7453 8.66469 10.8283 8.60639 10.8894C8.54808 10.9506 8.46894 10.9849 8.38648 10.9849H7.14258C6.97085 10.9849 6.83161 10.8389 6.83161 10.6588V9.3544C6.83161 9.17432 6.97085 9.0283 7.14258 9.0283H8.38648C8.46894 9.0283 8.54808 9.06265 8.60639 9.1238C8.66469 9.18494 8.69746 9.26793 8.69746 9.3544V10.6588ZM8.69746 7.39776C8.69746 7.48423 8.66469 7.56722 8.60639 7.62836C8.54808 7.6895 8.46894 7.72386 8.38648 7.72386H7.14258C6.97085 7.72386 6.83161 7.57784 6.83161 7.39776V6.09332C6.83161 5.91324 6.97085 5.76722 7.14258 5.76722H8.38648C8.46894 5.76722 8.54808 5.80157 8.60639 5.86272C8.66469 5.92386 8.69746 6.00685 8.69746 6.09332V7.39776ZM12.4292 10.6588C12.4292 10.7453 12.3964 10.8283 12.3381 10.8894C12.2798 10.9506 12.2006 10.9849 12.1182 10.9849H10.8743C10.7026 10.9849 10.5633 10.8389 10.5633 10.6588V9.3544C10.5633 9.17432 10.7026 9.0283 10.8743 9.0283H12.1182C12.2006 9.0283 12.2798 9.06265 12.3381 9.1238C12.3964 9.18494 12.4292 9.26793 12.4292 9.3544V10.6588ZM12.4292 7.39776C12.4292 7.48423 12.3964 7.56722 12.3381 7.62836C12.2798 7.6895 12.2006 7.72386 12.1182 7.72386H10.8743C10.7026 7.72386 10.5633 7.57784 10.5633 7.39776V6.09332C10.5633 5.91324 10.7026 5.76722 10.8743 5.76722H12.1182C12.2006 5.76722 12.2798 5.80157 12.3381 5.86272C12.3964 5.92386 12.4292 6.00685 12.4292 6.09332V7.39776Z" fill="#E0E0E0"/>
</svg>
