<svg width="193" height="61" viewBox="0 0 193 61" fill="none" xmlns="http://www.w3.org/2000/svg">
<path d="M111.389 41.3499C112.773 41.3499 113.938 41.8154 114.883 42.7474C115.829 43.6794 116.302 44.8246 116.302 46.1813C116.302 47.5379 115.829 48.6823 114.883 49.6143C113.938 50.5462 112.773 51.0127 111.389 51.0127H108.86V55.7406H106.023V41.3499H111.389ZM111.389 48.3601C111.991 48.3601 112.492 48.1514 112.89 47.733C113.287 47.3156 113.486 46.7974 113.486 46.1813C113.486 45.5506 113.287 45.0297 112.89 44.6186C112.492 44.2075 111.991 44.0015 111.389 44.0015H108.86V48.3601H111.389Z" fill="#E9002A"/>
<path d="M124.136 45.4616H126.788V55.7406H124.136V54.5273C123.341 55.5282 122.225 56.0283 120.785 56.0283C119.415 56.0283 118.24 55.5037 117.259 54.4556C116.28 53.4075 115.789 52.1225 115.789 50.6006C115.789 49.0797 116.28 47.7947 117.259 46.7466C118.24 45.6975 119.415 45.1739 120.785 45.1739C122.225 45.1739 123.341 45.6739 124.136 46.674V45.4616ZM119.243 52.6978C119.778 53.2323 120.456 53.5 121.278 53.5C122.101 53.5 122.783 53.2287 123.324 52.6878C123.865 52.1461 124.136 51.4509 124.136 50.6006C124.136 49.7512 123.865 49.0561 123.324 48.5143C122.783 47.9726 122.101 47.7021 121.278 47.7021C120.456 47.7021 119.778 47.9726 119.243 48.5143C118.709 49.0561 118.442 49.7512 118.442 50.6006C118.442 51.4509 118.709 52.1497 119.243 52.6978Z" fill="#E9002A"/>
<path d="M134.866 45.4615H137.704L133.962 55.7405C133.427 57.2206 132.718 58.2932 131.834 58.9575C130.95 59.6227 129.85 59.9203 128.535 59.8523V57.3848C129.247 57.3984 129.812 57.2478 130.231 56.9329C130.649 56.618 130.981 56.1107 131.228 55.412L127.013 45.4615H129.912L132.584 52.3692L134.866 45.4615Z" fill="#E9002A"/>
<path d="M145.393 45.4616H147.983V55.2469C147.983 56.8368 147.459 58.0501 146.41 58.8859C145.362 59.7217 144.098 60.14 142.618 60.14C141.507 60.14 140.531 59.9277 139.688 59.503C138.845 59.0783 138.198 58.4539 137.745 57.6318L140.007 56.3368C140.528 57.296 141.425 57.776 142.7 57.776C143.536 57.776 144.194 57.5564 144.674 57.1181C145.153 56.6798 145.393 56.0555 145.393 55.2469V54.1371C144.611 55.1789 143.515 55.6997 142.104 55.6997C140.651 55.6997 139.435 55.1888 138.455 54.1679C137.474 53.147 136.984 51.9029 136.984 50.4364C136.984 48.9835 137.478 47.743 138.465 46.7157C139.451 45.6876 140.665 45.1739 142.104 45.1739C143.515 45.1739 144.611 45.6948 145.393 46.7357V45.4616ZM140.438 52.4718C140.987 52.9927 141.679 53.2532 142.515 53.2532C143.351 53.2532 144.04 52.9891 144.581 52.4619C145.123 51.9337 145.393 51.2585 145.393 50.4364C145.393 49.6278 145.123 48.9599 144.581 48.4318C144.04 47.9045 143.351 47.6404 142.515 47.6404C141.679 47.6404 140.99 47.9045 140.449 48.4318C139.907 48.9599 139.637 49.6278 139.637 50.4364C139.637 51.2585 139.904 51.9373 140.438 52.4718Z" fill="#E9002A"/>
<path d="M157.173 45.4616H159.825V55.7406H157.173V54.5273C156.378 55.5282 155.261 56.0283 153.822 56.0283C152.451 56.0283 151.276 55.5037 150.296 54.4556C149.316 53.4075 148.827 52.1225 148.827 50.6006C148.827 49.0797 149.316 47.7947 150.296 46.7466C151.276 45.6975 152.451 45.1739 153.822 45.1739C155.261 45.1739 156.378 45.6739 157.173 46.674V45.4616ZM152.281 52.6978C152.815 53.2323 153.493 53.5 154.316 53.5C155.138 53.5 155.82 53.2287 156.361 52.6878C156.903 52.1461 157.173 51.4509 157.173 50.6006C157.173 49.7512 156.903 49.0561 156.361 48.5143C155.82 47.9726 155.138 47.7021 154.316 47.7021C153.493 47.7021 152.815 47.9726 152.281 48.5143C151.746 49.0561 151.478 49.7512 151.478 50.6006C151.478 51.4509 151.746 52.1497 152.281 52.6978Z" fill="#E9002A"/>
<path d="M167.08 48.0107H164.757V52.2867C164.757 52.6434 164.846 52.9038 165.024 53.0681C165.202 53.2323 165.463 53.3249 165.805 53.3457C166.148 53.3657 166.573 53.363 167.08 53.3348V55.7406C165.257 55.9466 163.972 55.7751 163.225 55.2269C162.478 54.6788 162.105 53.6987 162.105 52.2867V48.0107H160.316V45.4616H162.105V43.3853L164.757 42.5831V45.4616H167.08V48.0107Z" fill="#E9002A"/>
<path d="M169.857 51.6905C170.213 52.9791 171.18 53.6234 172.756 53.6234C173.77 53.6234 174.538 53.2804 175.058 52.5953L177.196 53.8285C176.182 55.295 174.689 56.0283 172.715 56.0283C171.015 56.0283 169.651 55.5146 168.624 54.4864C167.596 53.4583 167.082 52.1633 167.082 50.6006C167.082 49.0525 167.589 47.7602 168.603 46.7257C169.618 45.6912 170.919 45.1739 172.51 45.1739C174.017 45.1739 175.261 45.6948 176.241 46.7357C177.22 47.7775 177.711 49.0661 177.711 50.6006C177.711 50.9437 177.676 51.3066 177.608 51.6905H169.857ZM169.816 49.6351H175.058C174.908 48.9354 174.596 48.4154 174.123 48.0724C173.651 47.7294 173.113 47.5588 172.51 47.5588C171.797 47.5588 171.208 47.7403 170.741 48.1033C170.275 48.4662 169.967 48.9772 169.816 49.6351Z" fill="#E9002A"/>
<path d="M21.0383 13.1236H16.3678V26.096C16.3678 30.7665 13.2073 32.3698 9.81084 32.3698C7.92437 32.3698 4.6695 30.9552 4.6695 26.5688V13.1236H0V26.5688C0 34.9169 5.47165 37.1809 9.81084 37.1809C13.0657 37.1809 15.1892 36.1438 16.3678 34.5394L21.0383 36.71V13.1236Z" fill="#0010FF"/>
<path d="M27.4997 48.5018V34.3989C27.4997 34.3989 30.2828 37.5122 35.0476 37.5122C41.7462 37.5122 47.1707 32.0877 47.1707 25.3892C47.1707 18.6897 41.7462 13.2662 35.0476 13.2662C30.2828 13.2662 27.4997 16.3323 27.4997 16.3323L23.0662 13.5965V47.0872L27.4997 48.5018ZM34.9533 17.4648C39.0093 17.4648 42.2642 21.2849 42.2642 25.2948C42.2642 29.3037 39.0093 33.1248 34.9533 33.1248C30.9434 33.1248 27.6885 29.3037 27.6885 25.2948C27.6885 21.2849 30.9434 17.4648 34.9533 17.4648Z" fill="#0010FF"/>
<path d="M52.9257 48.5018V34.3989C52.9257 34.3989 55.7097 37.5122 60.4736 37.5122C67.1722 37.5122 72.5967 32.0877 72.5967 25.3892C72.5967 18.6897 67.1722 13.2662 60.4736 13.2662C55.7097 13.2662 52.9257 16.3323 52.9257 16.3323L48.4922 13.5965V47.0872L52.9257 48.5018ZM60.3802 17.4648C64.4353 17.4648 67.6902 21.2849 67.6902 25.2948C67.6902 29.3037 64.4353 33.1248 60.3802 33.1248C56.3693 33.1248 53.1144 29.3037 53.1144 25.2948C53.1144 21.2849 56.3693 17.4648 60.3802 17.4648Z" fill="#0010FF"/>
<path d="M89.6702 31.0967H95.2362C93.3026 35.0122 89.3881 37.6537 84.7176 37.6537C77.9247 37.6537 72.6417 32.1348 72.6417 25.4353C72.6417 18.6895 77.9247 13.1717 84.7176 13.1717C91.4633 13.1717 96.6046 18.6895 96.6046 25.4353C96.6046 26.0487 96.5565 26.6621 96.4631 27.2284H77.5943C78.3021 30.8126 81.1323 33.455 84.6222 33.455C86.6512 33.455 88.3971 32.6057 89.6702 31.0967ZM77.6897 23.4072H91.4151C90.6611 20.0118 88.0196 17.5119 84.6222 17.5119C81.2267 17.5119 78.4909 20.0118 77.6897 23.4072Z" fill="#0010FF"/>
<path d="M108.963 13.1236C105.708 13.1236 103.586 14.1617 102.406 15.766L97.7357 13.5964V37.1809H102.406V24.2095C102.406 19.54 105.567 17.9356 108.963 17.9356C109.528 17.9356 110.236 17.9828 110.944 18.1716V13.2661C110.283 13.1718 109.624 13.1236 108.963 13.1236Z" fill="#0010FF"/>
<path d="M119.39 30.3889V0.859955L114.672 2.27557V30.3889C114.672 35.719 117.456 37.9358 122.598 37.9358V33.2191C120.616 33.2191 119.39 32.5585 119.39 30.3889Z" fill="#0010FF"/>
<path d="M127.125 7.22821C125.332 7.22821 123.917 5.85979 123.917 4.16206C123.917 2.51152 125.332 1.1431 127.125 1.1431C128.869 1.1431 130.332 2.51152 130.332 4.16206C130.332 5.85979 128.869 7.22821 127.125 7.22821ZM129.531 13.6436V37.1809H124.86V13.6436H129.531Z" fill="#0010FF"/>
<path d="M144.061 13.1236C140.805 13.1236 138.684 14.1617 137.504 15.766L132.834 13.5964V37.1809H137.504V24.2095C137.504 19.54 140.664 17.9356 144.061 17.9356C145.947 17.9356 149.202 19.3512 149.202 23.7376V37.1809H153.873V23.7376C153.873 15.3885 148.4 13.1236 144.061 13.1236Z" fill="#0010FF"/>
<path d="M177.363 37.1808H171.466L162.882 25.6712H160.805V37.1808H156.136V2.27557L160.805 0.859955V21.5208H162.882L171.041 13.2661H177.032L167.127 23.4555L177.363 37.1808Z" fill="#0010FF"/>
<path fill-rule="evenodd" clip-rule="evenodd" d="M193 24.1232H189.518V18.9186L182.788 25.6482L183.13 22.5851L179.791 22.9716L186.681 16.0823H180.795V12.5995H193V24.1232Z" fill="#E9002A"/>
</svg>
