<svg width="45" height="45" viewBox="0 0 45 45" fill="none" xmlns="http://www.w3.org/2000/svg">
<circle cx="22.5" cy="22.5" r="22.5" fill="url(#paint0_linear_1027_538)"/>
<path d="M27.9806 35.8877C26.4852 35.8915 25.03 35.4033 23.8393 34.4985C21.436 34.87 18.9769 34.4745 16.8114 33.3677C14.6461 32.2611 12.8848 30.4997 11.7782 28.3345C10.6714 26.1691 10.2758 23.71 10.6473 21.3066C9.13745 19.5434 8.62324 17.1359 9.28072 14.9097C9.9384 12.6836 11.6784 10.9421 13.9039 10.2825C16.1294 9.6229 18.5372 10.1352 20.3017 11.6433C22.7107 11.2711 25.1758 11.6697 27.3449 12.7823C29.5138 13.895 31.2756 15.6649 32.3781 17.8386C33.4808 20.0125 33.8683 22.4795 33.4849 24.8868C34.525 26.2528 35.0144 27.9592 34.8561 29.6688C34.6976 31.3784 33.9032 32.9661 32.6298 34.1177C31.3564 35.2693 29.6971 35.9008 27.9804 35.8872L27.9806 35.8877ZM24.3225 32.6523L24.6418 32.9284H24.6416C25.9594 34.0739 27.7697 34.4699 29.4453 33.9788C31.1209 33.4879 32.4312 32.1776 32.9221 30.5019C33.4132 28.8262 33.0173 27.0159 31.8718 25.6983L31.5956 25.379L31.6732 24.9649C32.0738 22.8611 31.7766 20.6842 30.827 18.7647C29.8774 16.8453 28.3273 15.288 26.412 14.3299C24.4967 13.3716 22.3211 13.0647 20.2158 13.4556L19.7757 13.5419L19.4564 13.2226H19.4566C18.1576 11.9498 16.2815 11.4607 14.5265 11.9371C12.7713 12.4138 11.4003 13.7848 10.9238 15.5398C10.4472 17.295 10.9363 19.1711 12.2093 20.4699L12.5286 20.7977L12.4508 21.2206C12.0497 23.3292 12.3491 25.5112 13.304 27.4336C14.2586 29.3561 15.816 30.9136 17.7384 31.8682C19.661 32.8228 21.8429 33.1225 23.9514 32.7211L24.3225 32.6523Z" fill="white"/>
<path d="M25.9617 28.8037C24.885 29.6172 23.5565 30.0265 22.2086 29.9598C21.1213 29.959 20.043 29.7634 19.025 29.3818C17.9963 29.0005 17.0481 28.4299 16.2295 27.6994L18.0587 25.5338C18.6744 26.0503 19.3598 26.4773 20.0949 26.8022C20.7816 27.0967 21.5217 27.2465 22.269 27.2421C22.7903 27.27 23.3083 27.1471 23.7617 26.8885C23.9306 26.7889 24.0702 26.646 24.1657 26.4746C24.2612 26.3032 24.3094 26.1097 24.3051 25.9134C24.3136 25.6588 24.2345 25.4092 24.0808 25.206C23.8424 24.9586 23.5458 24.7746 23.218 24.671C22.6379 24.4497 22.0442 24.2652 21.4408 24.1189C20.5549 23.9059 19.6889 23.6172 18.8525 23.2561C18.2364 22.9817 17.708 22.543 17.3253 21.9877C16.9109 21.3193 16.7148 20.5382 16.7645 19.7532C16.7487 18.9638 16.9711 18.1881 17.4029 17.5273C17.8308 16.8812 18.4276 16.3651 19.1284 16.0346C19.939 15.661 20.8245 15.4779 21.7168 15.4998C23.6189 15.4659 25.4724 16.101 26.9541 17.2943L25.3406 19.6325C24.2962 18.7924 23.0196 18.2924 21.6825 18.2002C21.2116 18.1723 20.7438 18.293 20.3452 18.5453C20.0528 18.7356 19.8747 19.0593 19.8706 19.4081C19.8572 19.6835 19.9463 19.954 20.1208 20.1672C20.3629 20.4105 20.6583 20.5936 20.9836 20.7022C21.6106 20.9262 22.2502 21.1134 22.899 21.2631C24.1218 21.5458 25.2674 22.0935 26.2552 22.8679C27.0124 23.5415 27.4248 24.5214 27.3768 25.5338C27.4569 26.7877 26.9306 28.0037 25.9619 28.8037L25.9617 28.8037Z" fill="white"/>
<path d="M22.2 30.3912C21.0629 30.3892 19.9352 30.1847 18.8697 29.7872C17.7935 29.3986 16.799 28.8135 15.9362 28.0617L15.6256 27.7855L17.9982 24.9383L18.326 25.2058L18.3262 25.206C18.9119 25.6908 19.5624 26.0915 20.2588 26.3966C20.8912 26.6671 21.5726 26.8052 22.2605 26.8021C22.6988 26.8283 23.1356 26.7295 23.52 26.5173C23.7411 26.3943 23.8744 26.1576 23.8651 25.9047C23.8794 25.7337 23.8335 25.5629 23.7357 25.4217C23.5516 25.2393 23.3269 25.1034 23.0802 25.0248C22.5166 24.8104 21.9405 24.6317 21.3546 24.4898C20.4458 24.2783 19.5568 23.9896 18.6972 23.627C18.0027 23.3233 17.4055 22.8337 16.9716 22.2121C16.525 21.491 16.3054 20.6523 16.3419 19.805C16.3207 18.9187 16.5674 18.0469 17.0493 17.3029C17.5284 16.5906 18.194 16.0234 18.9733 15.6637C19.8302 15.2683 20.7648 15.0707 21.7082 15.0855C23.7019 15.0329 25.6512 15.6767 27.2216 16.906L27.5323 17.1562L25.4442 20.1759L25.0905 19.9257C24.1004 19.1475 22.8964 18.6899 21.6394 18.6142C21.259 18.5872 20.8796 18.6778 20.5522 18.873C20.3675 18.9878 20.2564 19.1906 20.2589 19.4081C20.2435 19.59 20.2957 19.7713 20.4057 19.917C20.606 20.1083 20.8482 20.2502 21.113 20.3313C21.7233 20.5481 22.3456 20.7297 22.9767 20.8747C24.2695 21.1511 25.4859 21.7077 26.5399 22.5053C27.402 23.2689 27.8689 24.3838 27.8082 25.5337C27.8895 26.9138 27.3137 28.2509 26.2552 29.14C25.0926 30.0209 23.6569 30.4639 22.2002 30.3911L22.2 30.3912ZM16.8252 27.6561V27.6563C17.5305 28.223 18.3229 28.6716 19.1719 28.9849C20.1411 29.3442 21.1664 29.5283 22.2002 29.5283C23.4386 29.5838 24.658 29.2088 25.6513 28.4672C26.5074 27.7668 26.9757 26.6983 26.911 25.5943C26.9815 24.6928 26.6349 23.8088 25.9707 23.1957C25.0318 22.4885 23.952 21.9912 22.8042 21.7376C22.1405 21.5837 21.4865 21.3908 20.8456 21.1595C20.45 21.0283 20.0918 20.8034 19.8018 20.5039C19.5628 20.2221 19.4341 19.8636 19.4393 19.4943C19.4251 18.9867 19.6687 18.5062 20.0864 18.2175C20.5575 17.9027 21.1164 17.7455 21.6826 17.7688C22.9603 17.8277 24.1942 18.2532 25.2373 18.9941L26.3762 17.3461H26.3761C25.0251 16.3753 23.398 15.8642 21.7344 15.8881C20.9131 15.8727 20.0988 16.0439 19.3531 16.3884C18.7118 16.694 18.1682 17.172 17.7828 17.7688C17.402 18.3594 17.2067 19.0507 17.222 19.7532C17.1844 20.4396 17.3527 21.1215 17.7052 21.7118C18.0451 22.2029 18.5138 22.5909 19.0598 22.8334C19.8733 23.1926 20.7162 23.4813 21.579 23.6962C22.2032 23.8464 22.8169 24.0367 23.4168 24.2655C23.8037 24.3985 24.151 24.6271 24.4262 24.9299C24.6382 25.2097 24.7478 25.5539 24.7368 25.9047C24.7466 26.1799 24.6831 26.4528 24.5527 26.6955C24.4223 26.9381 24.2297 27.1417 23.9948 27.2852C23.4721 27.5889 22.8732 27.7356 22.2693 27.7081C21.4629 27.7123 20.664 27.5508 19.9226 27.2336C19.2805 26.9509 18.675 26.5917 18.1195 26.1636L16.8252 27.6561Z" fill="white"/>
<defs>
<linearGradient id="paint0_linear_1027_538" x1="-6" y1="-7.5" x2="22.5" y2="45" gradientUnits="userSpaceOnUse">
<stop stop-color="#27AE60"/>
<stop offset="1" stop-color="#4BBEFF"/>
</linearGradient>
</defs>
</svg>
